# xmcd
# Track frame offsets:
# 150
# 9862
# 23944
# 41271
# 51610
# 75882
# 86503
# 98959
# 114826
# 130143
# 140211
# 150173
#
# Disc length: 2189 seconds
# Revision: 0
# Processed by: cddbd v1.5.2PL0 Copyright (c) Steve Scherf et al.
# Submitted via: VisiTrax 2.10.2.252 - For more info visit www.synapsa.com
#
DISCID=85088b0c
DTITLE=Blues 4u - Dem
DYEAR=2007
DGENRE=Blues
TTITLE0=Demo
TTITLE1=Demo
TTITLE2=Demo
TTITLE3=Demo
TTITLE4=Demo
TTITLE5=Demo
TTITLE6=Demo
TTITLE7=Demo
TTITLE8=Demo
TTITLE9=Demo
TTITLE10=Demo
TTITLE11=Demo
EXTD=
EXTT0=
EXTT1=
EXTT2=
EXTT3=
EXTT4=
EXTT5=
EXTT6=
EXTT7=
EXTT8=
EXTT9=
EXTT10=
EXTT11=
PLAYORDER=
